HIERARCHY
ROOT Hips
{
	OFFSET 0.000000 0.000000 0.000000
	CHANNELS 6 Xposition Yposition Zposition Xrotation Yrotation Zrotation
	JOINT LeftUpLeg_virtual
	{
		OFFSET 0.000000 0.000000 0.000000
		CHANNELS 3 Xrotation Yrotation Zrotation
		JOINT LeftUpLeg
		{
			OFFSET 15.427100 -6.655098 0.678600
			CHANNELS 3 Xrotation Yrotation Zrotation
			JOINT LeftLeg
			{
				OFFSET 4.081073 -39.591068 13.024000
				CHANNELS 3 Xrotation Yrotation Zrotation
				JOINT LeftFoot
				{
					OFFSET -4.081074 -37.707932 -15.979700
					CHANNELS 3 Xrotation Yrotation Zrotation
					JOINT LeftToeBase
					{
						OFFSET 5.346399 -15.068900 20.645000
						CHANNELS 3 Xrotation Yrotation Zrotation
						JOINT LeftToe_End
						{
							OFFSET 2.754700 0.931300 11.300900
							CHANNELS 3 Xrotation Yrotation Zrotation
							End Site
							{
								OFFSET 0 0 0
							}
						}
					}
				}
			}
		}
	}
	JOINT RightUpLeg_virtual
	{
		OFFSET 0.000000 0.000000 0.000000
		CHANNELS 3 Xrotation Yrotation Zrotation
		JOINT RightUpLeg
		{
			OFFSET -15.569500 -6.655098 0.678600
			CHANNELS 3 Xrotation Yrotation Zrotation
			JOINT RightLeg
			{
				OFFSET -4.081825 -39.591045 13.023800
				CHANNELS 3 Xrotation Yrotation Zrotation
				JOINT RightFoot
				{
					OFFSET 4.081824 -37.707954 -15.979600
					CHANNELS 3 Xrotation Yrotation Zrotation
					JOINT RightToeBase
					{
						OFFSET -5.346400 -15.068900 20.645000
						CHANNELS 3 Xrotation Yrotation Zrotation
						JOINT RightToe_End
						{
							OFFSET -2.754700 0.931300 11.300900
							CHANNELS 3 Xrotation Yrotation Zrotation
							End Site
							{
								OFFSET 0 0 0
							}
						}
					}
				}
			}
		}
	}
	JOINT Spine_virtual
	{
		OFFSET 0.000000 0.000000 0.000000
		CHANNELS 3 Xrotation Yrotation Zrotation
		JOINT Spine
		{
			OFFSET -0.279200 12.230698 -2.892100
			CHANNELS 3 Xrotation Yrotation Zrotation
			JOINT Spine1
			{
				OFFSET -0.232667 10.192268 -1.242267
				CHANNELS 3 Xrotation Yrotation Zrotation
				JOINT Spine1_split
				{
					OFFSET -0.232667 10.192268 -1.242267
					CHANNELS 3 Xrotation Yrotation Zrotation
					JOINT Spine2
					{
						OFFSET -0.232667 10.192268 -1.242267
						CHANNELS 3 Xrotation Yrotation Zrotation
						JOINT Neck_virtual
						{
							OFFSET 0.000000 0.000000 0.000000
							CHANNELS 3 Xrotation Yrotation Zrotation
							JOINT Neck
							{
								OFFSET -0.418800 17.814194 8.416900
								CHANNELS 3 Xrotation Yrotation Zrotation
								JOINT Head
								{
									OFFSET 0.000000 7.031097 3.806800
									CHANNELS 3 Xrotation Yrotation Zrotation
									JOINT HeadTop_End
									{
										OFFSET 0.000000 24.646606 12.978600
										CHANNELS 3 Xrotation Yrotation Zrotation
										End Site
										{
											OFFSET 0 0 0
										}
									}
								}
							}
						}
						JOINT LeftShoulder_virtual
						{
							OFFSET 0.000000 0.000000 0.000000
							CHANNELS 3 Xrotation Yrotation Zrotation
							JOINT LeftShoulder
							{
								OFFSET 8.476499 7.247704 -3.868750
								CHANNELS 3 Xrotation Yrotation Zrotation
								JOINT LeftShoulder_split
								{
									OFFSET 8.476499 7.247704 -3.868750
									CHANNELS 3 Xrotation Yrotation Zrotation
									JOINT LeftArm
									{
										OFFSET 9.308998 -2.777710 0.208600
										CHANNELS 3 Xrotation Yrotation Zrotation
										JOINT LeftForeArm
										{
											OFFSET 29.972298 0.000000 0.000000
											CHANNELS 3 Xrotation Yrotation Zrotation
											JOINT LeftHand
											{
												OFFSET 26.026505 0.000000 0.000000
												CHANNELS 3 Xrotation Yrotation Zrotation
												End Site
												{
													OFFSET 0 0 0
												}
											}
										}
									}
								}
							}
						}
						JOINT RightShoulder_virtual
						{
							OFFSET 0.000000 0.000000 0.000000
							CHANNELS 3 Xrotation Yrotation Zrotation
							JOINT RightShoulder
							{
								OFFSET -7.570500 7.247704 -3.868750
								CHANNELS 3 Xrotation Yrotation Zrotation
								JOINT RightShoulder_split
								{
									OFFSET -7.570500 7.247704 -3.868750
									CHANNELS 3 Xrotation Yrotation Zrotation
									JOINT RightArm
									{
										OFFSET -9.308998 -2.777710 0.208500
										CHANNELS 3 Xrotation Yrotation Zrotation
										JOINT RightForeArm
										{
											OFFSET -29.972300 0.000000 0.000000
											CHANNELS 3 Xrotation Yrotation Zrotation
											JOINT RightHand
											{
												OFFSET -26.026505 0.000000 0.000000
												CHANNELS 3 Xrotation Yrotation Zrotation
												End Site
												{
													OFFSET 0 0 0
												}
											}
										}
									}
								}
							}
						}
					}
				}
			}
		}
	}
}
MOTION
Frames: 5
Frame Time: 0.03333333
4.719088 82.459007 73.176727 0.000000 0.000000 0.000000 22.405385 7.260957 1.347837 16.651689 23.643789 -5.006854 2.107894 -3.136566 4.980222 -24.016154 7.203324 -16.740729 -6.857931 -4.059393 -14.545795 0.000000 0.000000 0.000000 23.362544 12.478689 0.303881 -41.159051 6.285687 3.612366 43.492794 -29.078263 -4.421061 -13.081530 -4.612028 12.415033 -0.091557 5.645552 -1.646368 0.000000 0.000000 0.000000 19.012924 12.302548 1.462581 1.082343 -6.272097 0.263276 2.732800 -1.651685 1.804615 0.074207 0.265222 -0.081442 0.000000 0.000000 0.000000 3.547243 0.789990 3.760248 1.318216 -5.367412 -11.510457 -1.961291 -57.322718 -8.020748 0.000000 0.000000 0.000000 6.296782 0.431980 1.341618 5.416800 -13.361713 -3.667000 10.671755 -9.113743 -1.465930 -57.069130 -10.056346 -22.722117 25.556341 -56.049161 29.402137 0.000000 0.000000 0.000000 7.278781 0.268809 1.849197 5.676609 6.108269 2.706040 17.033800 9.480931 0.785870 -57.197766 -3.527570 21.287581 48.147260 74.684744 -53.305843 0.000000 0.000000 0.000000 
4.654426 81.976608 73.686493 0.000000 0.000000 0.000000 22.730482 7.362506 1.333078 16.277739 23.444167 -4.770464 2.841582 -3.125157 4.932694 -24.305039 7.478629 -17.162406 -7.227045 -3.967413 -14.591150 0.000000 0.000000 0.000000 23.701050 12.345877 0.313097 -41.969436 5.944886 3.400569 44.735191 -28.938559 -4.234077 -13.376905 -4.663667 12.451720 -0.240985 5.653798 -1.656509 0.000000 0.000000 0.000000 19.566226 12.193766 1.438004 1.337322 -6.225970 0.349940 2.602160 -1.729053 1.838495 0.069957 0.272672 -0.077940 0.000000 0.000000 0.000000 3.376429 0.715164 3.792540 0.707121 -4.262846 -11.450333 -4.961329 -56.234648 -10.844221 0.000000 0.000000 0.000000 5.987208 0.349315 1.371555 5.355475 -13.427006 -2.745227 10.425330 -8.925065 -1.495611 -57.189420 -10.451919 -22.802136 25.873598 -55.953439 29.781660 0.000000 0.000000 0.000000 7.054772 0.219079 1.908822 5.461233 6.357161 2.550538 16.193786 8.931897 0.785638 -57.246930 -3.136356 21.924260 47.614236 74.941286 -53.194548 0.000000 0.000000 0.000000 
4.598610 81.507317 74.185165 0.000000 0.000000 0.000000 23.093998 7.492630 1.298135 15.888880 23.243667 -4.510602 3.546454 -3.109229 4.868281 -24.548451 7.716086 -17.556499 -7.664393 -3.872545 -14.637604 0.000000 0.000000 0.000000 24.077749 12.217517 0.312370 -42.746626 5.612065 3.181783 45.864345 -28.797160 -4.081286 -13.675633 -4.717173 12.498610 -0.382236 5.663720 -1.648979 0.000000 0.000000 0.000000 20.156510 12.071458 1.408063 1.578387 -6.164650 0.438324 2.481146 -1.799078 1.894551 0.064849 0.277629 -0.074722 0.000000 0.000000 0.000000 3.226940 0.649364 3.836372 0.121293 -3.125364 -11.327860 -7.781074 -55.022173 -13.555932 0.000000 0.000000 0.000000 5.685493 0.271909 1.420790 5.285690 -13.568907 -1.809074 10.191400 -8.669055 -1.532203 -57.390876 -10.946693 -22.958117 26.000952 -55.753799 29.968148 0.000000 0.000000 0.000000 6.838569 0.177193 1.989141 5.219970 6.578965 2.386067 15.362176 8.339748 0.772594 -57.346876 -2.702028 22.632127 46.519083 75.166949 -52.565423 0.000000 0.000000 0.000000 
4.545645 81.041725 74.680580 0.000000 0.000000 0.000000 23.498393 7.608263 1.243468 15.493164 23.024691 -4.223229 4.236678 -3.099246 4.802373 -24.771327 7.924213 -17.938998 -8.125552 -3.780561 -14.688875 0.000000 0.000000 0.000000 24.496723 12.083409 0.293451 -43.492176 5.275625 2.965945 46.890140 -28.662991 -3.948335 -14.004605 -4.767462 12.521316 -0.432378 5.679855 -1.632765 0.000000 0.000000 0.000000 20.778226 11.916351 1.364296 1.804771 -6.089819 0.531102 2.371395 -1.863076 1.972809 0.061108 0.276626 -0.070249 0.000000 0.000000 0.000000 3.102774 0.591740 3.894942 -0.450233 -1.959437 -11.159644 -10.421494 -53.696447 -16.158689 0.000000 0.000000 0.000000 5.394217 0.197069 1.489492 5.204348 -13.799180 -0.882379 9.965945 -8.366938 -1.600127 -57.647377 -11.553959 -23.152586 25.926884 -55.454094 29.945045 0.000000 0.000000 0.000000 6.627610 0.140569 2.092474 4.953962 6.773441 2.212033 14.564661 7.724993 0.736630 -57.459205 -2.220167 23.414708 44.861847 75.354021 -51.421264 0.000000 0.000000 0.000000 
4.495170 80.570465 75.175606 0.000000 0.000000 0.000000 23.940634 7.691723 1.173134 15.104396 22.760584 -3.913073 4.926733 -3.113273 4.752970 -25.005905 8.115070 -18.344134 -8.577413 -3.696214 -14.736697 0.000000 0.000000 0.000000 24.948716 11.921836 0.258670 -44.217439 4.928694 2.758605 47.863486 -28.533812 -3.813576 -14.365370 -4.803347 12.515745 -0.374732 5.708360 -1.620592 0.000000 0.000000 0.000000 21.434080 11.720669 1.302109 2.020812 -6.004811 0.629238 2.274346 -1.921226 2.071058 0.057118 0.268176 -0.062749 0.000000 0.000000 0.000000 3.003859 0.540304 3.970962 -1.017742 -0.768509 -10.964205 -12.896478 -52.286553 -18.654135 0.000000 0.000000 0.000000 5.109903 0.125779 1.577936 5.110801 -14.121720 0.029630 9.765407 -8.043283 -1.693716 -57.922702 -12.265121 -23.330145 25.667214 -55.082395 29.730396 0.000000 0.000000 0.000000 6.420026 0.105305 2.217018 4.672661 6.932072 2.013466 13.799171 7.115552 0.691066 -57.547117 -1.692051 24.257625 42.790486 75.522836 -49.910627 0.000000 0.000000 0.000000 
